# File created by Blade
# Date/Time:  Tue Jan 27 18:50:05 2015
# Frame Rate: 120.000 fps
#------------------------------------------------------
:FULLY-SPECIFIED
:DEGREES
2226
root -0.287534 32.001841 -6.516443 15.056385 -15.219788 -20.115211
Spine 8.917595 2.379384 7.228529
Head 0.903437 -41.138977 19.221388
LeftShoulder -14.264998 14.059234 20.334364
LeftArm 19.126584 -31.874003 -68.920717
LeftForeArm -28.615068 -0.000000 140.249553
LeftHand -21.087342 -0.000000 9.482909
LeftHandThumb1 -26.253704 0.000000 33.147579
RightShoulder -3.603821 12.201198 -8.398482
RightArm 34.585123 -50.518886 71.643242
RightForeArm -32.167088 0.000000 68.751523
RightHand -14.155818 0.000000 9.766254
RightHandThumb1 -24.326973 -0.000000 -32.862282
LeftUpLeg -21.535427 17.223497 2.936037
LeftLeg 27.535080 -0.000000 -0.000000
LeftFoot -39.713002 32.967199 -29.297816
LeftToeBase 4.877497 -0.000000 -0.000000
RightUpLeg -55.006618 -28.816321 -0.748585
RightLeg 83.256376 -0.000000 -0.000000
RightFoot -19.125131 -26.738433 16.113791
RightToeBase 19.749640 -0.000000 -0.000000
2227
root -0.279386 32.003689 -6.539956 15.115266 -15.367571 -20.045098
Spine 8.934064 2.381645 7.177362
Head 1.072116 -41.076371 19.137214
LeftShoulder -14.192091 14.045647 20.439143
LeftArm 19.335646 -31.878589 -69.092617
LeftForeArm -28.810517 0.000000 140.302619
LeftHand -21.156472 0.000000 9.329087
LeftHandThumb1 -26.253704 0.000000 33.147579
RightShoulder -3.528084 12.240445 -8.376739
RightArm 34.804407 -50.901494 71.701661
RightForeArm -32.038023 -0.000000 69.601462
RightHand -14.028998 -0.000000 9.850195
RightHandThumb1 -24.326973 -0.000000 -32.862282
LeftUpLeg -21.610692 17.178530 2.873332
LeftLeg 27.609217 -0.000000 -0.000000
LeftFoot -39.718128 32.766445 -29.526466
LeftToeBase 4.816174 -0.000000 -0.000000
RightUpLeg -54.982287 -28.872038 -0.838510
RightLeg 83.211409 -0.000000 -0.000000
RightFoot -19.054942 -26.824504 16.030807
RightToeBase 19.489393 -0.000000 -0.000000
2228
root -0.270876 32.006874 -6.567360 15.194459 -15.509039 -19.983670
Spine 8.930870 2.370819 7.134685
Head 1.225637 -41.014119 19.069287
LeftShoulder -14.154496 14.059063 20.492023
LeftArm 19.510428 -31.715518 -69.226262
LeftForeArm -28.872729 -0.000000 140.329325
LeftHand -21.200184 -0.000000 9.465468
LeftHandThumb1 -26.253704 0.000000 33.147579
RightShoulder -3.416585 12.296449 -8.379304
RightArm 35.056054 -51.296960 71.759447
RightForeArm -31.285444 -0.000000 70.527411
RightHand -14.024115 -0.000000 10.211749
RightHandThumb1 -24.326973 -0.000000 -32.862282
LeftUpLeg -21.715019 17.074865 2.856611
LeftLeg 27.723558 -0.000000 -0.000000
LeftFoot -39.628515 32.538218 -29.699490
LeftToeBase 4.743013 -0.000000 -0.000000
RightUpLeg -54.982786 -28.922610 -0.924503
RightLeg 83.183848 -0.000000 -0.000000
RightFoot -18.987840 -26.825836 15.977453
RightToeBase 19.452415 -0.000000 -0.000000
2229
root -0.262978 32.009335 -6.587539 15.232265 -15.725060 -19.872750
Spine 8.944334 2.450002 7.003478
Head 1.361405 -40.987200 19.064705
LeftShoulder -14.113287 14.084708 20.537960
LeftArm 19.685388 -31.388652 -69.375202
LeftForeArm -28.682249 -0.000000 140.330236
LeftHand -21.125868 -0.000000 9.654617
LeftHandThumb1 -26.253704 0.000000 33.147579
RightShoulder -3.358958 12.370180 -8.370270
RightArm 35.468255 -51.894488 71.644365
RightForeArm -31.069040 -0.000000 71.362992
RightHand -14.042474 -0.000000 9.365946
RightHandThumb1 -24.326973 -0.000000 -32.862282
LeftUpLeg -21.745167 17.051924 2.790004
LeftLeg 27.827722 -0.000000 -0.000000
LeftFoot -39.542795 32.227567 -29.897177
LeftToeBase 4.681881 -0.000000 -0.000000
RightUpLeg -54.994708 -29.009282 -1.041683
RightLeg 83.157283 -0.000000 -0.000000
RightFoot -18.923187 -26.919242 15.884900
RightToeBase 19.458209 -0.000000 -0.000000
2230
root -0.255723 32.014384 -6.607904 15.277520 -15.933673 -19.765868
Spine 8.935370 2.493751 6.868765
Head 1.529272 -40.950647 19.034519
LeftShoulder -14.109634 14.108539 20.557813
LeftArm 19.812702 -30.928027 -69.529103
LeftForeArm -28.461199 -0.000000 140.288494
LeftHand -21.058556 -0.000000 9.808708
LeftHandThumb1 -26.253704 0.000000 33.147579
RightShoulder -3.248118 12.447511 -8.346963
RightArm 35.982820 -52.477998 71.485866
RightForeArm -30.648983 -0.000000 72.203271
RightHand -14.033510 -0.000000 9.437986
RightHandThumb1 -24.326973 -0.000000 -32.862282
LeftUpLeg -21.782882 17.038976 2.748887
LeftLeg 27.972886 -0.000000 -0.000000
LeftFoot -39.373429 31.814127 -30.038147
LeftToeBase 4.514872 -0.000000 -0.000000
RightUpLeg -55.040859 -29.164656 -1.116524
RightLeg 83.119998 -0.000000 -0.000000
RightFoot -18.823193 -26.977146 15.839238
RightToeBase 19.499195 -0.000000 -0.000000
2231
root -0.243704 32.017338 -6.625137 15.284510 -16.164930 -19.623949
Spine 8.950243 2.532860 6.708173
Head 1.683683 -40.901859 18.968783
LeftShoulder -14.105928 14.003984 20.554802
LeftArm 19.799174 -30.423447 -69.627230
LeftForeArm -28.111688 -0.000000 140.231563
LeftHand -21.081463 0.000000 9.838022
LeftHandThumb1 -26.253704 0.000000 33.147579
RightShoulder -3.087948 12.594556 -8.353613
RightArm 36.394365 -53.065164 71.417855
RightForeArm -30.530773 -0.000000 73.046512
RightHand -13.907104 -0.000000 9.572116
RightHandThumb1 -24.326973 -0.000000 -32.862282
LeftUpLeg -21.771938 16.958440 2.688797
LeftLeg 28.119563 -0.000000 -0.000000
LeftFoot -39.235096 31.408683 -30.234668
LeftToeBase 4.428076 -0.000000 -0.000000
RightUpLeg -55.069265 -29.330950 -1.253989
RightLeg 83.082514 -0.000000 -0.000000
RightFoot -18.792256 -26.972768 15.889235
RightToeBase 19.581554 -0.000000 -0.000000
2232
root -0.244291 32.025172 -6.651278 15.424564 -16.473072 -19.591011
Spine 8.844269 2.729378 6.585405
Head 1.845852 -40.899209 18.983992
LeftShoulder -14.097611 13.927828 20.581176
LeftArm 19.826016 -29.826527 -69.785941
LeftForeArm -27.759909 -0.000000 140.153617
LeftHand -21.062430 0.000000 9.975336
LeftHandThumb1 -26.253704 0.000000 33.147579
RightShoulder -2.950157 12.730470 -8.336760
RightArm 37.031139 -53.752798 71.110766
RightForeArm -30.224780 -0.000000 73.849851
RightHand -13.754311 -0.000000 9.419124
RightHandThumb1 -24.326973 -0.000000 -32.862282
LeftUpLeg -21.891140 17.128396 2.699867
LeftLeg 28.316390 -0.000000 -0.000000
LeftFoot -38.967446 30.722791 -30.358818
LeftToeBase 4.040480 -0.000000 -0.000000
RightUpLeg -55.248993 -29.370484 -1.201441
RightLeg 83.036249 -0.000000 -0.000000
RightFoot -18.588640 -27.069308 15.690794
RightToeBase 18.863930 -0.000000 -0.000000
2233
root -0.241659 32.029289 -6.665644 15.434637 -16.733558 -19.547217
Spine 8.862469 2.859867 6.511418
Head 1.992170 -40.892967 18.924595
LeftShoulder -14.089443 13.802779 20.493835
LeftArm 19.894941 -29.253518 -69.922096
LeftForeArm -27.366589 0.000000 140.070585
LeftHand -21.167853 0.000000 9.882206
LeftHandThumb1 -26.253704 0.000000 33.147579
RightShoulder -2.805172 12.879603 -8.388587
RightArm 37.820543 -54.509726 70.682836
RightForeArm -29.735246 0.000000 74.623593
RightHand -13.878491 0.000000 8.758687
RightHandThumb1 -24.326973 -0.000000 -32.862282
LeftUpLeg -21.887854 17.095015 2.737742
LeftLeg 28.524734 -0.000000 -0.000000
LeftFoot -38.866674 30.312664 -30.602373
LeftToeBase 3.731954 -0.000000 -0.000000
RightUpLeg -55.258078 -29.505698 -1.243526
RightLeg 82.993025 -0.000000 -0.000000
RightFoot -18.574790 -27.059817 15.707741
RightToeBase 19.230580 -0.000000 -0.000000
2234
root -0.234491 32.038399 -6.684192 15.453151 -16.984339 -19.443367
Spine 8.857470 2.938295 6.365983
Head 2.119563 -40.842146 18.875270
LeftShoulder -14.126793 13.671837 20.370762
LeftArm 19.968768 -28.663004 -70.098597
LeftForeArm -26.891300 -0.000000 139.983988
LeftHand -21.298639 -0.000000 9.805999
LeftHandThumb1 -26.253704 0.000000 33.147579
RightShoulder -2.555902 13.049350 -8.382646
RightArm 38.701894 -55.218619 70.130211
RightForeArm -29.338195 -0.000000 75.356516
RightHand -13.877993 -0.000000 8.468803
RightHandThumb1 -24.326973 -0.000000 -32.862282
LeftUpLeg -21.889577 17.391431 2.639574
LeftLeg 28.578475 -0.000000 -0.000000
LeftFoot -38.510219 29.851968 -30.488119
LeftToeBase 3.523736 -0.000000 -0.000000
RightUpLeg -55.297875 -29.660739 -1.326824
RightLeg 82.924761 -0.000000 -0.000000
RightFoot -18.602145 -27.008576 15.821789
RightToeBase 19.221605 -0.000000 -0.000000
2235
root -0.229382 32.044742 -6.699878 15.438177 -17.223341 -19.383333
Spine 8.901105 3.072639 6.281126
Head 2.179885 -40.874144 18.886777
LeftShoulder -14.146008 13.622122 20.261975
LeftArm 20.251522 -28.092729 -70.483545
LeftForeArm -26.530954 -0.000000 139.879667
LeftHand -21.453139 -0.000000 9.589041
LeftHandThumb1 -26.253704 0.000000 33.147579
RightShoulder -2.368521 13.263163 -8.447968
RightArm 39.589596 -55.947229 69.600058
RightForeArm -28.983638 0.000000 76.040251
RightHand -13.778673 -0.000000 8.225272
RightHandThumb1 -24.326973 -0.000000 -32.862282
LeftUpLeg -21.869012 17.397973 2.629557
LeftLeg 28.699313 -0.000000 -0.000000
LeftFoot -38.404569 29.770114 -30.637174
LeftToeBase 3.347490 -0.000000 -0.000000
RightUpLeg -55.279600 -29.819624 -1.412717
RightLeg 82.857083 -0.000000 -0.000000
RightFoot -18.505802 -26.962527 15.719719
RightToeBase 18.885434 -0.000000 -0.000000
2236
root -0.227463 32.051512 -6.718554 15.468781 -17.505413 -19.298913
Spine 8.869962 3.284074 6.122238
Head 2.258326 -40.930905 18.927683
LeftShoulder -14.100155 13.480085 20.146856
LeftArm 20.366039 -27.489588 -70.701296
LeftForeArm -26.068737 -0.000000 139.810654
LeftHand -21.268910 -0.000000 9.679168
LeftHandThumb1 -26.253704 0.000000 33.147579
RightShoulder -2.140976 13.482833 -8.479560
RightArm 40.318042 -56.603880 69.216600
RightForeArm -28.833611 0.000000 76.690112
RightHand -13.664454 -0.000000 8.147533
RightHandThumb1 -24.326973 -0.000000 -32.862282
LeftUpLeg -21.897162 17.607497 2.534420
LeftLeg 28.748181 -0.000000 -0.000000
LeftFoot -38.191807 29.597906 -30.629188
LeftToeBase 3.141723 -0.000000 -0.000000
RightUpLeg -55.342611 -29.918555 -1.500727
RightLeg 82.790486 -0.000000 -0.000000
RightFoot -18.466824 -26.961717 15.642846
RightToeBase 18.888482 -0.000000 -0.000000
2237
root -0.230936 32.056249 -6.736194 15.583423 -17.845834 -19.238739
Spine 8.726619 3.578238 5.947034
Head 2.373349 -40.992837 18.970150
LeftShoulder -14.101526 13.444304 20.075450
LeftArm 20.704844 -26.932656 -71.129941
LeftForeArm -25.644843 -0.000000 139.709575
LeftHand -21.376096 -0.000000 9.622891
LeftHandThumb1 -26.253704 0.000000 33.147579
RightShoulder -1.917611 13.674286 -8.510801
RightArm 41.115698 -57.263247 68.790961
RightForeArm -28.839479 -0.000000 77.285032
RightHand -13.342576 -0.000000 8.238619
RightHandThumb1 -24.326973 -0.000000 -32.862282
LeftUpLeg -22.026882 17.674849 2.459159
LeftLeg 28.887559 -0.000000 -0.000000
LeftFoot -38.168691 29.501095 -30.904267
LeftToeBase 2.948157 -0.000000 -0.000000
RightUpLeg -55.501113 -29.931372 -1.544455
RightLeg 82.734514 -0.000000 -0.000000
RightFoot -18.645329 -26.863579 15.827102
RightToeBase 19.205957 -0.000000 -0.000000
2238
root -0.232977 32.061585 -6.752477 15.609381 -18.128297 -19.153432
Spine 8.689260 3.822813 5.769717
Head 2.385377 -41.088401 19.069621
LeftShoulder -14.091075 13.305271 20.000493
LeftArm 20.992647 -26.367616 -71.555654
LeftForeArm -25.122188 0.000000 139.654630
LeftHand -21.576507 -0.000000 9.657509
LeftHandThumb1 -26.253704 0.000000 33.147579
RightShoulder -1.697920 13.898843 -8.568167
RightArm 42.167821 -57.943987 68.051948
RightForeArm -28.603656 -0.000000 77.867787
RightHand -12.952841 -0.000000 8.361882
RightHandThumb1 -24.326973 -0.000000 -32.862282
LeftUpLeg -22.073461 17.732483 2.372595
LeftLeg 28.971964 -0.000000 -0.000000
LeftFoot -38.078088 29.405335 -31.055215
LeftToeBase 3.273063 -0.000000 -0.000000
RightUpLeg -55.561246 -30.015589 -1.659213
RightLeg 82.661077 -0.000000 -0.000000
RightFoot -19.059865 -26.637694 16.350762
RightToeBase 19.740091 -0.000000 -0.000000
